<svg xmlns="http://www.w3.org/2000/svg" xmlns:xlink="http://www.w3.org/1999/xlink" fill="none" version="1.1" width="11" height="11" viewBox="0 0 11 11"><defs><clipPath id="master_svg0_11_3471"><rect x="0" y="0" width="11" height="11" rx="0"/></clipPath></defs><g clip-path="url(#master_svg0_11_3471)"><g></g><g><path d="M2.2916641235351562,8.70835701171875L2.2916641235351562,4.12501701171875C2.2916641235351562,2.35310701171875,3.7280841235351563,0.91668701171875,5.499994123535156,0.91668701171875C7.271914123535156,0.91668701171875,8.708334123535156,2.35310701171875,8.708334123535156,4.12501701171875L8.708334123535156,8.70835701171875" fill="#FFFFFF" fill-opacity="1"/><path d="M8.708334123535156,9.45835701171875L0.9166641235351562,9.45835701171875Q0.8427956235351562,9.45835701171875,0.7703461235351563,9.44393701171875Q0.6978971235351563,9.42952701171875,0.6296511235351563,9.40126701171875Q0.5614061235351562,9.37299701171875,0.49998612353515626,9.33195701171875Q0.43856712353515626,9.29091701171875,0.3863341235351563,9.23868701171875Q0.3341011235351562,9.18644701171875,0.29306212353515626,9.12502701171875Q0.2520231235351562,9.06360701171875,0.22375412353515622,8.99536701171875Q0.19548612353515626,8.92711701171875,0.1810751235351562,8.85466701171875Q0.16666412353515625,8.78221701171875,0.16666412353515625,8.70835701171875Q0.16666412353515625,8.63448701171875,0.1810751235351562,8.56203701171875Q0.19548612353515626,8.48958701171875,0.22375412353515622,8.42133701171875Q0.2520231235351562,8.35309701171875,0.29306212353515626,8.29167701171875Q0.3341011235351562,8.23025701171875,0.3863341235351563,8.17802701171875Q0.43856712353515626,8.12578701171875,0.49998612353515626,8.08474701171875Q0.5614061235351562,8.04370701171875,0.6296511235351563,8.01544701171875Q0.6978971235351563,7.98717701171875,0.7703461235351563,7.97276701171875Q0.8427956235351562,7.95835701171875,0.9166641235351562,7.95835701171875L1.5416641235351562,7.95835701171875L1.541663123535156,4.12501701171875Q1.5416641235351562,2.48542701171875,2.7010341235351563,1.32605501171875Q3.8604041235351563,0.16668701171875,5.499994123535156,0.16668701171875Q7.139594123535156,0.16668701171875,8.298964123535157,1.32605501171875Q9.458334123535156,2.48542701171875,9.458334123535156,4.12501701171875L9.458334123535156,7.95835701171875L10.083334123535156,7.95835701171875Q10.157194123535156,7.95835701171875,10.229644123535156,7.97276701171875Q10.302094123535156,7.98717701171875,10.370344123535157,8.01544701171875Q10.438584123535156,8.04370701171875,10.500004123535156,8.08474701171875Q10.561424123535156,8.12578701171875,10.613664123535155,8.17802701171875Q10.665894123535157,8.23025701171875,10.706934123535156,8.29167701171875Q10.747974123535156,8.35309701171875,10.776244123535156,8.42133701171875Q10.804504123535157,8.48958701171875,10.818924123535156,8.56203701171875Q10.833334123535156,8.63448701171875,10.833334123535156,8.70835701171875Q10.833334123535156,8.78221701171875,10.818924123535156,8.85466701171875Q10.804504123535157,8.92711701171875,10.776244123535156,8.99536701171875Q10.747974123535156,9.06360701171875,10.706934123535156,9.12502701171875Q10.665894123535157,9.18644701171875,10.613664123535155,9.23868701171875Q10.561424123535156,9.29091701171875,10.500004123535156,9.33195701171875Q10.438584123535156,9.37299701171875,10.370344123535157,9.40125701171875Q10.302094123535156,9.42952701171875,10.229644123535156,9.44393701171875Q10.157194123535156,9.45835701171875,10.083334123535156,9.45835701171875L8.708334123535156,9.45835701171875ZM7.958334123535156,7.95835701171875L7.958334123535156,4.12501701171875Q7.958334123535156,3.10674701171875,7.238304123535157,2.38671701171875Q6.518274123535156,1.66668701171875,5.499994123535156,1.66668701171875Q4.481724123535156,1.66668701171875,3.761694123535156,2.38671701171875Q3.0416641235351562,3.10674701171875,3.0416641235351562,4.12501701171875L3.0416641235351562,7.95835701171875L7.958334123535156,7.95835701171875Z" fill-rule="evenodd" fill="#FFFFFF" fill-opacity="1"/></g><g><path d="M5.499994123535156,10.08331298828125C6.132814123535156,10.08331298828125,6.645834123535156,9.57030098828125,6.645834123535156,8.93747998828125L6.645834123535156,8.70831298828125L4.354164123535156,8.70831298828125L4.354164123535156,8.93747998828125C4.354164123535156,9.57030098828125,4.867177123535156,10.08331298828125,5.499994123535156,10.08331298828125Z" fill="#FFFFFF" fill-opacity="1"/><path d="M3.6041641235351562,8.70831298828125L3.6041641235351562,8.93747998828125Q3.6041641235351562,9.32268698828125,3.7534581235351565,9.67565398828125Q3.8974171235351562,10.01601298828125,4.159443123535156,10.27803298828125Q4.421469223535157,10.54006298828125,4.761823123535156,10.68402298828125Q5.1147901235351565,10.83331298828125,5.499994123535156,10.83331298828125Q5.885204123535156,10.83331298828125,6.238174123535156,10.68402298828125Q6.578524123535156,10.54006298828125,6.840554123535156,10.27803298828125Q7.102574123535156,10.01601298828125,7.246534123535156,9.67565398828125Q7.395834123535156,9.32268798828125,7.395834123535156,8.93747998828125L7.395834123535156,8.70831298828125Q7.395834123535156,8.63444448828125,7.381424123535156,8.56199498828125Q7.367004123535157,8.48954598828125,7.338744123535156,8.42129998828125Q7.3104741235351565,8.35305498828125,7.269434123535156,8.29163498828125Q7.228394123535156,8.23021598828125,7.176164123535156,8.17798298828125Q7.123924123535156,8.12574998828125,7.062504123535156,8.08471098828125Q7.001084123535156,8.04367198828125,6.9328441235351566,8.01540298828125Q6.864594123535156,7.98713498828125,6.792144123535156,7.97272398828125Q6.7197041235351564,7.95831298828125,6.645834123535156,7.95831298828125L4.354164123535156,7.95831298828125Q4.280295623535157,7.95831298828125,4.207846123535156,7.97272398828125Q4.1353971235351565,7.98713498828125,4.067151123535156,8.01540298828125Q3.998906123535156,8.04367198828125,3.937486123535156,8.08471098828125Q3.8760671235351563,8.12574998828125,3.823834123535156,8.17798298828125Q3.7716011235351563,8.23021598828125,3.7305621235351563,8.29163498828125Q3.689523123535156,8.35305498828125,3.6612541235351563,8.42129998828125Q3.632986123535156,8.48954598828125,3.618575123535156,8.56199498828125Q3.6041641235351562,8.63444448828125,3.6041641235351562,8.70831298828125Z" fill-rule="evenodd" fill="#FFFFFF" fill-opacity="1"/></g></g></svg>