<svg xmlns="http://www.w3.org/2000/svg" xmlns:xlink="http://www.w3.org/1999/xlink" fill="none" version="1.1" width="11" height="11" viewBox="0 0 11 11"><g><path d="M9.35,11L1.65,11C0.73873,11,0,10.2613,0,9.35L0,0.55C0,0.246243,0.246243,0,0.55,0L8.25,0C8.55376,0,8.8,0.246243,8.8,0.55L8.8,7.15L11,7.15L11,9.35C11,10.2613,10.2613,11,9.35,11ZM8.8,8.25L8.8,9.35C8.8,9.65376,9.04624,9.9,9.35,9.9C9.65376,9.9,9.9,9.65376,9.9,9.35L9.9,8.25L8.8,8.25ZM2.2,2.75L2.2,3.85L6.6,3.85L6.6,2.75L2.2,2.75ZM2.2,4.95L2.2,6.05L6.6,6.05L6.6,4.95L2.2,4.95ZM2.2,7.15L2.2,8.25L4.95,8.25L4.95,7.15L2.2,7.15Z" fill="#FFFFFF" fill-opacity="1" style="mix-blend-mode:passthrough"/></g></svg>