<svg xmlns="http://www.w3.org/2000/svg" xmlns:xlink="http://www.w3.org/1999/xlink" fill="none" version="1.1" width="736" height="74.333251953125" viewBox="0 0 736 74.333251953125"><g><g><line x1="0" y1="36.66666793823242" x2="352.5" y2="36.66666793823242" fill-opacity="0" stroke-opacity="1" stroke="#B8B8C1" fill="none" stroke-width="1"/></g><g><path d="M362.72956,37.261477938232424L366.6318,37.261477938232424L366.6318,38.07541793823242L362.72956,38.07541793823242L362.72956,37.261477938232424ZM357.56037,40.88866793823242L367.397,40.88866793823242L367.397,41.71666793823242L357.56037,41.71666793823242L357.56037,40.88866793823242ZM361.95256,38.60997793823242L362.94012,38.60997793823242L362.94012,41.279767938232425L361.95256,41.279767938232425L361.95256,38.60997793823242ZM362.72956,33.256667938232425L366.51800000000003,33.256667938232425L366.51800000000003,34.07528793823242L363.72463,34.07528793823242L363.72463,37.69272793823242L362.72956,37.69272793823242L362.72956,33.256667938232425ZM358.40488,33.27128793823242L362.07275,33.27128793823242L362.07275,34.089917938232425L359.39994,34.089917938232425L359.39994,37.65128793823242L358.40488,37.65128793823242L358.40488,33.27128793823242ZM358.40488,37.24272793823242L359.00713,37.24272793823242Q359.53681,37.24272793823242,360.04719,37.22341793823242Q360.55756,37.204107938232426,361.08519,37.13716793823242Q361.61281,37.07004793823242,362.1695,36.94628793823242L362.26756,37.77897793823242Q361.68088,37.904227938232424,361.1405,37.97060793823242Q360.60031,38.03678793823242,360.08056,38.05610793823242Q359.56081,38.07541793823242,359.00713,38.07541793823242L358.40488,38.07541793823242L358.40488,37.24272793823242ZM369.9202,35.50216793823242L377.2964,35.50216793823242L377.2964,36.31610793823242L369.9202,36.31610793823242L369.9202,35.50216793823242ZM368.5931,37.768667938232426L378.4297,37.768667938232426L378.4297,38.58260793823242L368.5931,38.58260793823242L368.5931,37.768667938232426ZM369.9202,32.63960793823242L370.9079,32.63960793823242L370.9079,35.91410793823242L369.9202,35.91410793823242L369.9202,32.63960793823242ZM369.8514,42.01856793823242L377.3564,42.01856793823242L377.3564,42.837167938232426L369.8514,42.837167938232426L369.8514,42.01856793823242ZM369.8514,39.66536793823242L370.8438,39.66536793823242L370.8438,42.23626793823242L369.8514,42.23626793823242L369.8514,39.66536793823242Z" fill="#91929F" fill-opacity="1"/></g><g><line x1="383.5" y1="36.66666793823242" x2="736" y2="36.66666793823242" fill-opacity="0" stroke-opacity="1" stroke="#B8B8C1" fill="none" stroke-width="1"/></g></g></svg>