<svg xmlns="http://www.w3.org/2000/svg" xmlns:xlink="http://www.w3.org/1999/xlink" fill="none" version="1.1" width="12" height="10" viewBox="0 0 12 10"><g><path d="M0,0.551667C0.00228481,0.248086,0.267336,0.00242127,0.5952,0L11.4048,0C11.7336,0,12,0.247222,12,0.551667L12,9.44833C11.9977,9.75191,11.7327,9.99758,11.4048,10L0.5952,10C0.266383,9.99969,-7.15256e-8,9.75279,0,9.44833L0,0.551667ZM5.1732,3.00833C5.09963,2.96288,5.00501,2.95858,4.92699,2.99715C4.84896,3.03571,4.80016,3.11088,4.8,3.19278L4.8,6.80722C4.80016,6.88912,4.84896,6.96429,4.92699,7.00286C5.00501,7.04142,5.09963,7.03712,5.1732,6.99167L6.6369,6.08833L8.1006,5.185C8.24331,5.09706,8.24331,4.90294,8.1006,4.815L5.1726,3.00833L5.1732,3.00833Z" fill="#FFFFFF" fill-opacity="1" style="mix-blend-mode:passthrough"/></g></svg>