<svg xmlns="http://www.w3.org/2000/svg" xmlns:xlink="http://www.w3.org/1999/xlink" fill="none" version="1.1" width="20" height="20" viewBox="0 0 20 20"><defs><clipPath id="master_svg0_11_4001"><rect x="0" y="0" width="20" height="20" rx="0"/></clipPath></defs><g clip-path="url(#master_svg0_11_4001)"><g><path d="M4.902332,4.902332Q3,6.80466,3,9.49495Q3,12.18524,4.902332,14.0876Q6.80466,15.9899,9.49495,15.9899Q12.18524,15.9899,14.0876,14.0876Q15.9899,12.18523,15.9899,9.49495Q15.9899,6.80466,14.0876,4.902332Q12.18524,3,9.49495,3Q6.80466,3,4.902332,4.902332ZM6.316549999999999,12.67335Q5,11.35681,5,9.49495Q5,7.63309,6.316549999999999,6.316549999999999Q7.63309,5,9.49495,5Q11.35681,5,12.67336,6.316549999999999Q13.9899,7.63309,13.9899,9.49495Q13.9899,11.35681,12.67335,12.67336Q11.35681,13.9899,9.49495,13.9899Q7.63309,13.9899,6.316549999999999,12.67335Z" fill-rule="evenodd" fill="#FFFFFF" fill-opacity="1"/></g><g><path d="M12.747971125,14.1514429375Q12.607319125,14.0107909375,12.531198125,13.8270189375Q12.455078125,13.6432479375,12.455078125,13.4443359375Q12.455078125,13.3458445375,12.474293124999999,13.2492459375Q12.493508125,13.1526469375,12.531199125,13.0616529375Q12.568890125,12.9706579375,12.623608125,12.8887659375Q12.678327125,12.8068729375,12.747971125,12.7372289375Q12.817615125,12.6675849375,12.899508125,12.6128659375Q12.981400125,12.5581479375,13.072395125,12.5204569375Q13.163389125,12.4827659375,13.259988125,12.463550937499999Q13.356586725,12.4443359375,13.455078125,12.4443359375Q13.653990125,12.4443359375,13.837761125,12.5204559375Q14.021533125,12.5965769375,14.162185125,12.7372289375L16.904908125,15.4799559375Q17.045558125,15.6206059375,17.121678125,15.8043759375Q17.197798125,15.9881459375,17.197798125,16.1870559375Q17.197798125,16.2855559375,17.178588125,16.3821459375Q17.159368125,16.4787459375,17.121678125,16.5697459375Q17.083988125,16.6607359375,17.029268125,16.7426259375Q16.974548125,16.8245259375,16.904908125,16.8941659375Q16.835268125,16.9638059375,16.753368125,17.0185259375Q16.671478125,17.0732459375,16.580488125,17.1109359375Q16.489488125,17.1486259375,16.392888125,17.1678459375Q16.296298125,17.1870559375,16.197798125,17.1870559375Q15.998888125,17.1870559375,15.815118125,17.1109359375Q15.631348125,17.0348159375,15.490698125,16.8941659375L12.747971125,14.1514429375L12.747971125,14.1514429375Z" fill-rule="evenodd" fill="#FFFFFF" fill-opacity="1"/></g></g></svg>