<svg xmlns="http://www.w3.org/2000/svg" xmlns:xlink="http://www.w3.org/1999/xlink" fill="none" version="1.1" width="12" height="11" viewBox="0 0 12 11"><g><path d="M2.00102,1.18537C2.61696,0.653043,3.34043,0.249456,4.12591,0C4.58088,0.549924,5.27073,0.869926,6.00003,0.86935C6.72934,0.869926,7.41919,0.549924,7.87416,1.37995e-7C8.65963,0.249456,9.3831,0.653043,9.99905,1.18537C9.73353,1.84013,9.79137,2.5759,10.1562,3.18453C10.5203,3.79433,11.1526,4.21086,11.8738,4.31607C12.0421,5.09681,12.0421,5.90261,11.8738,6.68335C11.1779,6.78637,10.536,7.18111,10.1562,7.81489C9.79118,8.42367,9.73333,9.1597,9.99905,9.81463C9.38305,10.3468,8.65958,10.7501,7.87416,10.9994C7.41907,10.4497,6.72924,10.1299,6.00003,10.1306C5.27073,10.1301,4.58088,10.4501,4.12591,11C3.34048,10.7507,2.61702,10.3473,2.00102,9.81521C2.26673,9.16028,2.20888,8.42425,1.84384,7.81547C1.47961,7.20589,0.847398,6.78959,0.12629,6.6845C-0.0420967,5.90358,-0.0420967,5.09758,0.12629,4.31665C0.847511,4.21144,1.47975,3.79491,1.84384,3.18511C2.20869,2.57648,2.26654,1.84071,2.00102,1.18595L2.00102,1.18537ZM6.8999,7.00342C7.76803,6.52721,8.0683,5.46013,7.56898,4.62574C7.06965,3.79135,5.96167,3.50873,5.10016,3.996C4.2467,4.47872,3.9571,5.53556,4.45176,6.36216C4.94643,7.18877,6.03988,7.47518,6.8999,7.00342Z" fill="#FFFFFF" fill-opacity="1" style="mix-blend-mode:passthrough"/></g></svg>