<svg xmlns="http://www.w3.org/2000/svg" xmlns:xlink="http://www.w3.org/1999/xlink" fill="none" version="1.1" width="266" height="48" viewBox="0 0 266 48"><g><g><g><rect x="36.5" y="9.999999046325684" width="28" height="28" rx="14" fill="#4E46DD" fill-opacity="1" style="mix-blend-mode:passthrough"/></g><g><ellipse cx="53.29999780654907" cy="23.999993681907654" rx="1.4000000953674316" ry="1.399999976158142" fill="#FFFFFF" fill-opacity="1" style="mix-blend-mode:passthrough"/></g><g><path d="M54.10624771118164,27.606243896484376Q52.61249771118164,29.099993896484374,50.49999771118164,29.099993896484374L50.49999771118164,30.099993896484374Q53.02670771118164,30.099993896484374,54.81335771118164,28.313353896484376Q56.59999771118164,26.526703896484374,56.59999771118164,23.999993896484376Q56.59999771118164,21.473283896484375,54.81335771118164,19.686633896484373Q53.02670771118164,17.899993896484375,50.49999771118164,17.899993896484375Q47.97328771118164,17.899993896484375,46.18663771118164,19.686633896484373Q44.39999771118164,21.473273896484375,44.39999771118164,23.999993896484376L45.39999771118164,23.999993896484376Q45.39999771118164,21.887493896484376,46.89374771118164,20.393743896484374Q48.38749771118164,18.899993896484375,50.49999771118164,18.899993896484375Q52.61249771118164,18.899993896484375,54.10624771118164,20.393743896484374Q55.59999771118164,21.887493896484376,55.59999771118164,23.999993896484376Q55.59999771118164,26.112493896484374,54.10624771118164,27.606243896484376Z" fill-rule="evenodd" fill="#FFFFFF" fill-opacity="1" style="mix-blend-mode:passthrough"/></g><g><path d="M48.873656948242186,25.173653324279783Q49.54732694824219,24.499993324279785,50.499996948242185,24.499993324279785L50.499996948242185,23.499993324279785Q49.13311694824219,23.499993324279785,48.16655494824219,24.466551324279784Q47.19999694824219,25.433113324279784,47.19999694824219,26.799993324279786Q47.19999694824219,28.166873324279784,48.16655494824219,29.133433324279785Q49.13311694824219,30.099993324279787,50.499996948242185,30.099993324279787L50.499996948242185,29.099993324279787Q49.54732694824219,29.099993324279787,48.873656948242186,28.426333324279785Q48.19999694824219,27.752663324279787,48.19999694824219,26.799993324279786Q48.19999694824219,25.847323324279785,48.873656948242186,25.173653324279783Z" fill-rule="evenodd" fill="#FFFFFF" fill-opacity="1" style="mix-blend-mode:passthrough"/></g></g><g><path d="M83.644,20.92773Q85.3315,20.92773,86.21039999999999,21.79126Q87.0894,22.65479,87.0894,24.55762L87.0894,31L84.0264,31L84.0264,25.42334Q84.0264,24.3291,83.6946,23.839109999999998Q83.3628,23.34912,82.686,23.34912Q81.7368,23.34912,81.3523,24.093989999999998Q80.9678,24.83887,80.9678,26.214399999999998L80.9678,31L77.90479,31L77.90479,25.42334Q77.90479,24.71143,77.76196,24.252200000000002Q77.61914,23.79297,77.3291,23.57104Q77.03906,23.34912,76.59082,23.34912Q75.92285,23.34912,75.54492,23.71387Q75.16699,24.078609999999998,75.01098999999999,24.78394Q74.85498,25.48926,74.85498,26.5088L74.85498,31L71.79639,31L71.79639,21.10791L74.1167,21.10791L74.54736,22.35156L74.67041,22.35156Q74.95166,21.89453,75.38672,21.57812Q75.82178,21.26172,76.38208,21.09473Q76.94238,20.92773,77.59277,20.92773Q78.68262,20.92773,79.41431,21.28809Q80.146,21.64844,80.5723,22.34277L80.7437,22.34277Q81.2007,21.63086,81.9763,21.2793Q82.752,20.92773,83.644,20.92773ZM88.333,21.10791L91.6113,21.10791L93.3823,26.7285Q93.4438,26.9219,93.4922,27.1482Q93.54050000000001,27.374499999999998,93.5757,27.6206Q93.6108,27.8667,93.6284,28.1216L93.6899,28.1216Q93.7383,27.7041,93.813,27.363500000000002Q93.8877,27.0229,93.9844,26.737299999999998L95.7598,21.10791L98.9502,21.10791L94.9028,31.9448Q94.4854,33.061,93.8811,33.8125Q93.2769,34.564,92.4419,34.9441Q91.6069,35.324200000000005,90.4819,35.324200000000005Q90.0161,35.324200000000005,89.6799,35.2759Q89.3438,35.2275,89.0977,35.174800000000005L89.0977,32.7622Q89.28659999999999,32.8018,89.56790000000001,32.8369Q89.84909999999999,32.8721,90.1567,32.8721Q90.7236,32.8721,91.1038,32.6392Q91.4839,32.4062,91.7344,32.0195Q91.9849,31.6328,92.14750000000001,31.1802L92.2441,30.8945L88.333,21.10791ZM107.981,31L104.92240000000001,31L104.92240000000001,17.32422L107.981,17.32422L107.981,31ZM113.6499,21.10791L113.6499,31L110.59129999999999,31L110.59129999999999,21.10791L113.6499,21.10791ZM112.1294,17.1792Q112.79740000000001,17.1792,113.28739999999999,17.47144Q113.7773,17.76367,113.7773,18.59863Q113.7773,19.41602,113.28739999999999,19.71484Q112.79740000000001,20.01367,112.1294,20.01367Q111.4482,20.01367,110.9692,19.71484Q110.4902,19.41602,110.4902,18.59863Q110.4902,17.76367,110.9692,17.47144Q111.4482,17.1792,112.1294,17.1792ZM120.769,28.75Q121.2217,28.75,121.6238,28.6577Q122.02590000000001,28.5654,122.4434,28.424799999999998L122.4434,30.674799999999998Q121.9468,30.8945,121.314,31.0352Q120.68119999999999,31.175800000000002,119.8154,31.175800000000002Q118.8926,31.175800000000002,118.17410000000001,30.8813Q117.4556,30.5869,117.0513,29.8574Q116.64699999999999,29.1279,116.64699999999999,27.8228L116.64699999999999,23.40186L115.4033,23.40186L115.4033,22.13623L116.9062,21.14746L117.7368,19.06445L119.7188,19.06445L119.7188,21.10791L122.3159,21.10791L122.3159,23.40186L119.7188,23.40186L119.7188,27.7085Q119.7188,28.2314,120.0022,28.4907Q120.2856,28.75,120.769,28.75ZM128.8198,28.75Q129.2725,28.75,129.6746,28.6577Q130.07670000000002,28.5654,130.4941,28.424799999999998L130.4941,30.674799999999998Q129.9976,30.8945,129.3647,31.0352Q128.7319,31.175800000000002,127.86619999999999,31.175800000000002Q126.9434,31.175800000000002,126.22489999999999,30.8813Q125.50630000000001,30.5869,125.10210000000001,29.8574Q124.6978,29.1279,124.6978,27.8228L124.6978,23.40186L123.4541,23.40186L123.4541,22.13623L124.957,21.14746L125.7876,19.06445L127.7695,19.06445L127.7695,21.10791L130.3667,21.10791L130.3667,23.40186L127.7695,23.40186L127.7695,27.7085Q127.7695,28.2314,128.053,28.4907Q128.3364,28.75,128.8198,28.75ZM135.4204,31L132.36180000000002,31L132.36180000000002,17.32422L135.4204,17.32422L135.4204,31ZM142.28910000000002,20.92773Q143.6953,20.92773,144.7148,21.44189Q145.7344,21.95605,146.2881,22.95801Q146.8418,23.95996,146.8418,25.43652L146.8418,26.851599999999998L140.60160000000002,26.851599999999998Q140.6455,27.8096,141.2344,28.3831Q141.82319999999999,28.9565,142.91750000000002,28.9565Q143.8535,28.9565,144.6335,28.7676Q145.4136,28.5786,146.2397,28.1919L146.2397,30.463900000000002Q145.5146,30.833,144.6907,31.0044Q143.86669999999998,31.175800000000002,142.6494,31.175800000000002Q141.1597,31.175800000000002,139.9973,30.6353Q138.83499999999998,30.0947,138.1714,28.9741Q137.5078,27.8535,137.5078,26.1221Q137.5078,24.36426,138.1077,23.21289Q138.70749999999998,22.06152,139.7842,21.49463Q140.86079999999998,20.92773,142.28910000000002,20.92773ZM142.3594,23.05029Q141.66500000000002,23.05029,141.2036,23.49194Q140.7422,23.93359,140.66750000000002,24.87842L144.0249,24.87842Q144.0161,24.359859999999998,143.8293,23.94678Q143.64260000000002,23.53369,143.2778,23.29199Q142.9131,23.05029,142.3594,23.05029ZM165.4263,20.92773Q167.1138,20.92773,167.9927,21.79126Q168.8716,22.65479,168.8716,24.55762L168.8716,31L165.8086,31L165.8086,25.42334Q165.8086,24.3291,165.4768,23.839109999999998Q165.14499999999998,23.34912,164.4683,23.34912Q163.519,23.34912,163.1345,24.093989999999998Q162.75,24.83887,162.75,26.214399999999998L162.75,31L159.687,31L159.687,25.42334Q159.687,24.71143,159.5442,24.252200000000002Q159.4014,23.79297,159.1113,23.57104Q158.8213,23.34912,158.373,23.34912Q157.70510000000002,23.34912,157.3271,23.71387Q156.94920000000002,24.078609999999998,156.7932,24.78394Q156.6372,25.48926,156.6372,26.5088L156.6372,31L153.5786,31L153.5786,21.10791L155.8989,21.10791L156.3296,22.35156L156.45260000000002,22.35156Q156.7339,21.89453,157.1689,21.57812Q157.60399999999998,21.26172,158.1643,21.09473Q158.7246,20.92773,159.375,20.92773Q160.4648,20.92773,161.19650000000001,21.28809Q161.9282,21.64844,162.3545,22.34277L162.52589999999998,22.34277Q162.9829,21.63086,163.7585,21.2793Q164.5342,20.92773,165.4263,20.92773ZM175.688,20.92773Q177.094,20.92773,178.113,21.44189Q179.13299999999998,21.95605,179.687,22.95801Q180.24,23.95996,180.24,25.43652L180.24,26.851599999999998L174,26.851599999999998Q174.04399999999998,27.8096,174.63299999999998,28.3831Q175.22199999999998,28.9565,176.316,28.9565Q177.252,28.9565,178.03199999999998,28.7676Q178.812,28.5786,179.638,28.1919L179.638,30.463900000000002Q178.913,30.833,178.089,31.0044Q177.265,31.175800000000002,176.048,31.175800000000002Q174.558,31.175800000000002,173.39600000000002,30.6353Q172.233,30.0947,171.57,28.9741Q170.906,27.8535,170.906,26.1221Q170.906,24.36426,171.506,23.21289Q172.106,22.06152,173.183,21.49463Q174.25900000000001,20.92773,175.688,20.92773ZM175.75799999999998,23.05029Q175.063,23.05029,174.602,23.49194Q174.14100000000002,23.93359,174.066,24.87842L177.423,24.87842Q177.41500000000002,24.359859999999998,177.228,23.94678Q177.041,23.53369,176.676,23.29199Q176.312,23.05029,175.75799999999998,23.05029ZM194.149,20.92773Q195.836,20.92773,196.715,21.79126Q197.594,22.65479,197.594,24.55762L197.594,31L194.531,31L194.531,25.42334Q194.531,24.3291,194.199,23.839109999999998Q193.868,23.34912,193.191,23.34912Q192.24200000000002,23.34912,191.857,24.093989999999998Q191.473,24.83887,191.473,26.214399999999998L191.473,31L188.41,31L188.41,25.42334Q188.41,24.71143,188.267,24.252200000000002Q188.124,23.79297,187.834,23.57104Q187.54399999999998,23.34912,187.096,23.34912Q186.428,23.34912,186.05,23.71387Q185.672,24.078609999999998,185.51600000000002,24.78394Q185.36,25.48926,185.36,26.5088L185.36,31L182.301,31L182.301,21.10791L184.622,21.10791L185.05200000000002,22.35156L185.175,22.35156Q185.457,21.89453,185.892,21.57812Q186.327,21.26172,186.887,21.09473Q187.447,20.92773,188.098,20.92773Q189.188,20.92773,189.91899999999998,21.28809Q190.651,21.64844,191.077,22.34277L191.249,22.34277Q191.70600000000002,21.63086,192.481,21.2793Q193.257,20.92773,194.149,20.92773ZM209.363,26.0342Q209.363,27.273400000000002,209.027,28.2314Q208.69,29.189500000000002,208.051,29.8464Q207.412,30.5034,206.509,30.8396Q205.605,31.175800000000002,204.472,31.175800000000002Q203.413,31.175800000000002,202.529,30.8396Q201.646,30.5034,200.993,29.8464Q200.341,29.189500000000002,199.985,28.2314Q199.629,27.273400000000002,199.629,26.0342Q199.629,24.39062,200.22,23.25244Q200.811,22.11426,201.907,21.521Q203.004,20.92773,204.524,20.92773Q205.931,20.92773,207.023,21.521Q208.115,22.11426,208.739,23.25244Q209.363,24.39062,209.363,26.0342ZM202.74,26.0342Q202.74,26.9438,202.92,27.5657Q203.101,28.1875,203.49,28.5061Q203.878,28.8247,204.507,28.8247Q205.131,28.8247,205.511,28.5061Q205.891,28.1875,206.067,27.5657Q206.243,26.9438,206.243,26.0342Q206.243,25.12012,206.067,24.51147Q205.891,23.90283,205.507,23.59521Q205.122,23.2876,204.489,23.2876Q203.566,23.2876,203.153,23.97754Q202.74,24.667479999999998,202.74,26.0342ZM217.203,20.92773Q217.444,20.92773,217.732,20.9585Q218.02,20.98926,218.178,21.02002L217.923,23.89844Q217.774,23.85449,217.521,23.82812Q217.269,23.80176,216.943,23.80176Q216.521,23.80176,216.093,23.89844Q215.665,23.99512,215.306,24.241210000000002Q214.948,24.487299999999998,214.731,24.92676Q214.513,25.366210000000002,214.513,26.0518L214.513,31L211.455,31L211.455,21.10791L213.749,21.10791L214.214,22.72949L214.364,22.72949Q214.645,22.23291,215.076,21.82422Q215.506,21.41553,216.051,21.17163Q216.596,20.92773,217.203,20.92773ZM218.464,21.10791L221.742,21.10791L223.513,26.7285Q223.575,26.9219,223.623,27.1482Q223.671,27.374499999999998,223.707,27.6206Q223.742,27.8667,223.759,28.1216L223.821,28.1216Q223.869,27.7041,223.944,27.363500000000002Q224.019,27.0229,224.115,26.737299999999998L225.891,21.10791L229.081,21.10791L225.034,31.9448Q224.616,33.061,224.012,33.8125Q223.408,34.564,222.573,34.9441Q221.738,35.324200000000005,220.613,35.324200000000005Q220.147,35.324200000000005,219.811,35.2759Q219.475,35.2275,219.229,35.174800000000005L219.229,32.7622Q219.417,32.8018,219.699,32.8369Q219.98,32.8721,220.288,32.8721Q220.854,32.8721,221.235,32.6392Q221.615,32.4062,221.865,32.0195Q222.116,31.6328,222.278,31.1802L222.375,30.8945L218.464,21.10791Z" fill="#4E46DD" fill-opacity="1"/></g></g></svg>